<?xml version="1.0" encoding="UTF-8"?>
<svg version="1.1" xmlns="http://www.w3.org/2000/svg" width="447" height="559">
<path d="M0 0 C4.97486984 2.48532871 9.48135686 5.78235437 14 9 C14.99 9.66 15.98 10.32 17 11 C16.46930939 14.82097239 15.50298434 17.06171403 13 20 C8.02647296 18.21601747 4.04792957 15.44028861 -0.28125 12.4609375 C-3.17439121 10.90628978 -4.7741157 10.68442436 -8 11 C-8.94607807 13.74961511 -8.94607807 13.74961511 -9 17 C-6.41775169 20.24625502 -3.84788041 22.43234502 0 24 C0 24.66 0 25.32 0 26 C1.2065625 26.433125 1.2065625 26.433125 2.4375 26.875 C5 28 5 28 6 30 C4.89011719 31.42505859 4.89011719 31.42505859 3.7578125 32.87890625 C0.63063761 37.2611383 -1.22347465 41.92814568 -3.125 46.9375 C-3.45886719 47.79279297 -3.79273438 48.64808594 -4.13671875 49.52929688 C-6.1362021 54.66914525 -8.07208679 59.83295311 -10 65 C-15.06771504 64.55932913 -19.15776342 63.29176681 -23.828125 61.3046875 C-26.40798417 60.2435139 -28.98680789 59.26693838 -31.609375 58.3203125 C-32.830802 57.87099365 -32.830802 57.87099365 -34.0769043 57.41259766 C-35.71992799 56.80935411 -37.36723925 56.21764938 -39.01879883 55.63818359 C-39.77700928 55.35539551 -40.53521973 55.07260742 -41.31640625 54.78125 C-42.00162354 54.53439453 -42.68684082 54.28753906 -43.39282227 54.03320312 C-45 53 -45 53 -45.78808594 51.09790039 C-46.12887281 47.72418883 -44.86091587 45.08093238 -43.6875 41.9375 C-43.23761719 40.70902344 -42.78773437 39.48054688 -42.32421875 38.21484375 C-41 35 -41 35 -39 32 C-38.566875 30.453125 -38.566875 30.453125 -38.125 28.875 C-37 26 -37 26 -35.1875 25 C-32.42067875 25 -30.48339136 25.82728741 -28 27 C-29.76463072 33.10737442 -31.69557475 39.07433507 -34 45 C-32.68 45.66 -31.36 46.32 -30 47 C-29.61908203 46.12988281 -29.61908203 46.12988281 -29.23046875 45.2421875 C-27.2595089 40.76877302 -25.23156912 36.35155978 -23 32 C-20.69 32.66 -18.38 33.32 -16 34 C-16.53753096 40.18160604 -18.54582388 45.326858 -21 51 C-18.69 51.66 -16.38 52.32 -14 53 C-14.12375 52.0409375 -14.12375 52.0409375 -14.25 51.0625 C-13.77668359 45.26437401 -10.58612488 40.13730212 -8 35 C-6.68 35 -5.36 35 -4 35 C-4.46374023 34.68248779 -4.92748047 34.36497559 -5.40527344 34.0378418 C-7.52080475 32.58863413 -9.63540938 31.1380799 -11.75 29.6875 C-12.47960937 29.18798828 -13.20921875 28.68847656 -13.9609375 28.17382812 C-14.66992188 27.68720703 -15.37890625 27.20058594 -16.109375 26.69921875 C-16.75874023 26.25408936 -17.40810547 25.80895996 -18.07714844 25.3503418 C-20.0839509 23.94104464 -22.04565605 22.48096686 -24 21 C-22.87548273 18.0280615 -21.77706209 15.66559313 -20 13 C-19.01 13 -18.02 13 -17 13 C-17.061875 12.278125 -17.12375 11.55625 -17.1875 10.8125 C-16.9565166 7.34774905 -16.09946703 5.75102577 -14 3 C-9.77267904 -0.60565611 -5.29508385 -1.34071824 0 0 Z " fill="#373737" transform="translate(110,171)"/>
<path d="M0 0 C4.28904235 1.5885342 6.32345526 4.43127368 9 8 C9 8.66 9 9.32 9 10 C9.66 10 10.32 10 11 10 C15 15.41176471 15 15.41176471 15 18 C15.66 18 16.32 18 17 18 C18.98046875 20.265625 18.98046875 20.265625 21.1875 23.25 C21.92355469 24.22453125 22.65960938 25.1990625 23.41796875 26.203125 C25 29 25 29 24.85546875 31.25 C23.68060006 33.65338436 22.28781932 34.65422393 20 36 C19.01 36 18.02 36 17 36 C16.773125 36.5775 16.54625 37.155 16.3125 37.75 C14.33370463 41.14222063 11.49013058 43.25493471 8 45 C3.09584021 45.53804631 -1.41636343 45.84938792 -5.625 43 C-6.40875 42.34 -7.1925 41.68 -8 41 C-8 42.37641972 -7.89493693 43.75105116 -7.8125 45.125 C-8.0558089 50.15338398 -8.8760011 53.93326578 -12.59375 57.55078125 C-17.3354697 61.000188 -21.64515131 61.7069525 -27.4453125 61.42578125 C-32.09400786 60.65099869 -34.70688305 58.29311695 -37.9375 55.0625 C-39 53 -39 53 -39.0390625 50.609375 C-37.69646126 47.23772977 -35.80745686 46.50837195 -32.58007812 45.07226562 C-31.87302734 44.78029297 -31.16597656 44.48832031 -30.4375 44.1875 C-29.37112305 43.72053711 -29.37112305 43.72053711 -28.28320312 43.24414062 C-26.52945799 42.47908402 -24.76560909 41.73726396 -23 41 C-26.05663912 40.06378718 -26.05663912 40.06378718 -29.125 40.75 C-31.29166667 42.02083333 -31.29166667 42.02083333 -33 45 C-35.875 44.6875 -35.875 44.6875 -39 44 C-39.66 43.01 -40.32 42.02 -41 41 C-38.74780076 36.36311921 -35.81648056 32.93136102 -31 31 C-19.4318754 29.59021716 -19.4318754 29.59021716 -14.57421875 32.40625 C-13 34 -13 34 -13 36 C-12.34 36 -11.68 36 -11 36 C-11.33 35.34 -11.66 34.68 -12 34 C-12.54644038 29.01933027 -12.54204675 25.1041693 -10.3125 20.5625 C-7.99656981 17.99619898 -6.13017715 16.44469715 -3 15 C-2.01 15 -1.02 15 0 15 C-0.433125 14.45730469 -0.86625 13.91460937 -1.3125 13.35546875 C-1.869375 12.64003906 -2.42625 11.92460937 -3 11.1875 C-3.556875 10.47980469 -4.11375 9.77210938 -4.6875 9.04296875 C-6 7 -6 7 -6 4 C-3 1.8125 -3 1.8125 0 0 Z M-2 24 C-2.95262639 27.13005815 -3.29216385 29.12350845 -2.25 32.25 C-0.42242294 34.80860789 1.36046966 35.8852125 4.4375 36.4375 C7.20468613 36.1940082 7.20468613 36.1940082 9.4375 33.875 C11.33802986 31.07507321 11.33802986 31.07507321 10.5 27.875 C8.94647034 24.89740148 7.9240902 23.59495829 5 22 C1.80869 22 0.54714915 22.13209062 -2 24 Z M-19 47 C-23.89562693 48.87702327 -23.89562693 48.87702327 -28 52 C-25.19235272 52.77426109 -25.19235272 52.77426109 -22 53 C-19.63709315 51.68864588 -19.63709315 51.68864588 -18 50 C-18.33 49.01 -18.66 48.02 -19 47 Z " fill="#323232" transform="translate(313,359)"/>
<path d="M0 0 C5.65150778 2.18013463 9.15119288 5.64424262 12 11 C12.75 13.375 12.75 13.375 13 15 C13.598125 14.360625 14.19625 13.72125 14.8125 13.0625 C18.76804858 9.33298276 22.91677491 9.72663254 28.078125 9.78125 C34.7644841 10.28183303 40.07120312 12.38919002 45 17 C43.87548273 19.9719385 42.77706209 22.33440687 41 25 C40.01 24.67 39.02 24.34 38 24 C38 23.34 38 22.68 38 22 C36.66702547 21.66523471 35.33360064 21.33226228 34 21 C33.24460938 20.81179688 32.48921875 20.62359375 31.7109375 20.4296875 C30.94007813 20.24664062 30.16921875 20.06359375 29.375 19.875 C28.59898437 19.68679688 27.82296875 19.49859375 27.0234375 19.3046875 C24.9365133 18.79198968 24.9365133 18.79198968 23 20 C23.69447078 23.21135624 23.69447078 23.21135624 26.58203125 24.4296875 C28.72722648 25.38944836 30.87305572 26.34779342 33.01953125 27.3046875 C36.29162924 29.16588085 37.96044351 30.85548092 40 34 C40.47867427 38.46762648 40.2852526 42.08242412 38 46 C32.03714002 50.50770332 25.13337633 49.82963463 18 49 C14.64704219 47.73440125 11.85060341 46.1630595 9 44 C9.72366315 40.65569263 10.81715496 38.65737657 13 36 C13.70125 36.28875 14.4025 36.5775 15.125 36.875 C16.07375 37.24625 17.0225 37.6175 18 38 C18.99 38.391875 19.98 38.78375 21 39.1875 C24.16704297 40.0452408 25.89094829 39.91442697 29 39 C28.30924779 35.79401179 28.30924779 35.79401179 25.453125 34.60546875 C24.39609375 34.13753906 23.3390625 33.66960937 22.25 33.1875 C17.10977518 30.74589321 14.1412365 28.71185475 11 24 C10.2575 24.78375 9.515 25.5675 8.75 26.375 C4.16431886 30.75224109 0.81713274 31.45391887 -5.3984375 31.31640625 C-10.85879629 30.65230856 -14.68708335 28.38024571 -18.4375 24.4375 C-21.12591222 20.24357694 -21.3327986 16.90877932 -21 12 C-17.04085991 1.90419277 -10.42563305 -1.38153881 0 0 Z M-9.375 11.6875 C-11.1972737 14.7871985 -11.1972737 14.7871985 -11 17.6875 C-9.77413236 20.52231891 -8.74276752 21.58943385 -6 23 C-2.93288436 22.72117131 -1.63629294 21.75752863 1 20 C2.08916154 16.62649951 2.08916154 16.62649951 2 13 C0.07809455 10.11714182 -1.14822979 9.21294255 -4.5 8.375 C-7.29550198 8.82314788 -7.29550198 8.82314788 -9.375 11.6875 Z " fill="#383838" transform="translate(173,390)"/>
<path d="M0 0 C3.18470359 2.94585082 6.37159668 6.75470594 6.59765625 11.2578125 C6.56510417 13.27604167 6.53255208 15.29427083 6.5 17.3125 C-0.59434233 17.40983092 -7.48194143 17.41337193 -14.5 16.3125 C-13.509245 17.97891006 -13.509245 17.97891006 -11.5 19.3125 C-8.75013411 19.44344599 -6.22629969 19.45378616 -3.5 19.3125 C-2.18 19.3125 -0.86 19.3125 0.5 19.3125 C2.25 21.3125 2.25 21.3125 3.5 23.3125 C2.52703346 25.96604511 1.84207577 27.11127896 -0.625 28.5625 C-7.46063094 30.34570807 -13.29126064 29.52724727 -19.5 26.3125 C-23.24361027 23.45553426 -24.11566992 20.72429978 -25.5 16.3125 C-27.70845985 16.62410461 -29.91676251 16.93682346 -32.125 17.25 C-33.35476562 17.42402344 -34.58453125 17.59804687 -35.8515625 17.77734375 C-39.07556184 18.25024301 -42.28812176 18.76401002 -45.5 19.3125 C-42.43570224 20.84464888 -39.8834358 20.54188548 -36.5 20.3125 C-33.62853006 18.94252843 -33.62853006 18.94252843 -31.5 17.3125 C-31.17 18.3025 -30.84 19.2925 -30.5 20.3125 C-28.48491642 21.04573796 -28.48491642 21.04573796 -26.5 21.3125 C-27.40167832 24.34541798 -28.08661928 25.98945063 -30.609375 27.9609375 C-34.26970872 29.67239083 -37.0345419 29.67699946 -41.0625 29.625 C-42.36316406 29.62113281 -43.66382813 29.61726563 -45.00390625 29.61328125 C-48.14935081 29.34266758 -49.88304656 28.98388757 -52.5 27.3125 C-52.5 26.6525 -52.5 25.9925 -52.5 25.3125 C-53.16 25.3125 -53.82 25.3125 -54.5 25.3125 C-57.61715741 20.2471192 -58.24887234 16.10585964 -57.5 10.3125 C-55.72907026 5.09809576 -53.25341032 2.98629331 -48.5 0.3125 C-43.34981766 -1.40422745 -38.42650789 -1.28027166 -33.25 0.3125 C-29.53019835 3.01781029 -27.65145314 6.30470454 -25.5 10.3125 C-25.29246094 9.78140625 -25.08492187 9.2503125 -24.87109375 8.703125 C-22.94784297 4.29332824 -21.16280118 1.12816264 -16.625 -1.0625 C-10.84532843 -2.7624034 -5.41037059 -2.60857153 0 0 Z M-11.5 6.3125 C-12.49 7.3025 -13.48 8.2925 -14.5 9.3125 C-10.87 9.6425 -7.24 9.9725 -3.5 10.3125 C-3.83 9.3225 -4.16 8.3325 -4.5 7.3125 C-7.85458155 6.54727199 -7.85458155 6.54727199 -11.5 6.3125 Z M-46.375 8.6875 C-47.68973666 10.25716014 -47.68973666 10.25716014 -47.5 12.3125 C-42.055 11.8175 -42.055 11.8175 -36.5 11.3125 C-37.16 9.9925 -37.82 8.6725 -38.5 7.3125 C-42.7109755 6.92821652 -42.7109755 6.92821652 -46.375 8.6875 Z " fill="#333333" transform="translate(247.5,110.6875)"/>
<path d="M0 0 C2.5625 1.875 2.5625 1.875 4 5 C3.45789327 13.11487535 0.07926092 21.0446186 -2.625 28.625 C-3.04523438 29.81996094 -3.46546875 31.01492187 -3.8984375 32.24609375 C-4.92632545 35.16622998 -5.96028162 38.08405964 -7 41 C-6.49138428 40.63237549 -5.98276855 40.26475098 -5.45874023 39.88598633 C-3.11847052 38.19462528 -0.77798662 36.50356087 1.5625 34.8125 C2.36236328 34.23435547 3.16222656 33.65621094 3.98632812 33.06054688 C8.64764774 29.69298127 13.31721829 26.33766052 18 23 C21.33717549 24.3809002 23.22301036 25.8201238 25 29 C24.72854508 31.51377263 24.34168161 32.6744145 22.49707031 34.43212891 C21.86381836 34.85929199 21.23056641 35.28645508 20.578125 35.7265625 C19.88203125 36.2009375 19.1859375 36.6753125 18.46875 37.1640625 C17.7365625 37.64617187 17.004375 38.12828125 16.25 38.625 C15.17492187 39.35976562 15.17492187 39.35976562 14.078125 40.109375 C11.10287051 42.11110872 8.39978258 43.84452899 5.046875 45.1484375 C4.37140625 45.42945313 3.6959375 45.71046875 3 46 C2.67 46.99 2.34 47.98 2 49 C0.04402816 50.39712274 -1.95436401 51.73779907 -4 53 C-5.9375 52.25 -5.9375 52.25 -8 51 C-8.75 48.875 -8.75 48.875 -9 47 C-9.66 47 -10.32 47 -11 47 C-11.12375 46.360625 -11.2475 45.72125 -11.375 45.0625 C-11.58125 44.381875 -11.7875 43.70125 -12 43 C-12.66 42.67 -13.32 42.34 -14 42 C-14 41.34 -14 40.68 -14 40 C-15.485 39.505 -15.485 39.505 -17 39 C-16.05653079 34.14787266 -16.05653079 34.14787266 -15.2578125 32.05859375 C-14.74927661 29.8953251 -14.74927661 29.8953251 -16.36328125 28.11328125 C-17.00652344 27.51902344 -17.64976562 26.92476562 -18.3125 26.3125 C-18.94800781 25.71050781 -19.58351563 25.10851562 -20.23828125 24.48828125 C-21.94089829 22.93139321 -21.94089829 22.93139321 -24 22 C-24 21.34 -24 20.68 -24 20 C-24.886875 20.33 -25.77375 20.66 -26.6875 21 C-31.86432161 22.56281407 -31.86432161 22.56281407 -35 22 C-37.8125 19.5 -37.8125 19.5 -40 17 C-39 14 -39 14 -36.734375 12.82421875 C-35.74953125 12.44910156 -34.7646875 12.07398438 -33.75 11.6875 C-29.15881982 9.87620007 -24.65997958 7.96353913 -20.1875 5.875 C-19.10597656 5.37484375 -18.02445312 4.8746875 -16.91015625 4.359375 C-15.22370597 3.5716103 -13.54143132 2.77450201 -11.87109375 1.953125 C-7.78335177 0.01441963 -4.49909242 -0.67910829 0 0 Z M-17 15 C-14.525 17.97 -14.525 17.97 -12 21 C-9.47740939 19.02579865 -9.0070192 18.03254358 -8.3125 14.8125 C-8.209375 13.884375 -8.10625 12.95625 -8 12 C-11.69418201 12 -13.77836178 13.28179295 -17 15 Z " fill="#353535" transform="translate(343,144)"/>
<path d="M0 0 C1.98 0 3.96 0 6 0 C6 0.66 6 1.32 6 2 C6.61875 2.28875 7.2375 2.5775 7.875 2.875 C10 4 10 4 12 6 C12.9724003 10.55221027 12.85301001 14.52337954 10.50390625 18.58984375 C8.16762661 21.58669309 5.68492206 24.31507794 3 27 C5.64 28.65 8.28 30.3 11 32 C11.40992188 31.278125 11.81984375 30.55625 12.2421875 29.8125 C12.78101563 28.884375 13.31984375 27.95625 13.875 27 C14.40867188 26.071875 14.94234375 25.14375 15.4921875 24.1875 C15.98976562 23.465625 16.48734375 22.74375 17 22 C17.66 22 18.32 22 19 22 C19.12375 21.38125 19.2475 20.7625 19.375 20.125 C20 18 20 18 22 16 C25.36939433 16.33693943 27.42910583 17.88819408 30 20 C29.50372318 24.79132712 27.19771508 28.02090287 24.4375 31.8125 C24.01275391 32.40998047 23.58800781 33.00746094 23.15039062 33.62304688 C22.10776741 35.08740533 21.05489548 36.54445735 20 38 C20.66 38.66 21.32 39.32 22 40 C21.61121812 43.01305957 20.73543126 44.39685311 19 47 C15.375 47.1875 15.375 47.1875 12 47 C12 47.66 12 48.32 12 49 C7.79310596 51.44271267 4.67682728 50.99351765 0.16015625 49.83984375 C-3.05786123 48.5887158 -4.91063107 46.6959599 -7 44 C-7 43.34 -7 42.68 -7 42 C-5.37373596 40.61767557 -3.7074998 39.28062485 -2 38 C-1.4225 38.309375 -0.845 38.61875 -0.25 38.9375 C1.84294184 39.92583364 3.74535275 40.5168613 6 41 C6 40.34 6 39.68 6 39 C4.35 38.34 2.7 37.68 1 37 C1 36.34 1 35.68 1 35 C-1.34533951 34.23043864 -1.34533951 34.23043864 -4 34 C-5.8354799 35.33378575 -5.8354799 35.33378575 -7 37 C-9.95409701 35.62845496 -12.44008376 34.01136276 -15 32 C-14.34 30.35 -13.68 28.7 -13 27 C-12.34 27 -11.68 27 -11 27 C-11 26.34 -11 25.68 -11 25 C-11.66 25 -12.32 25 -13 25 C-13 24.34 -13 23.68 -13 23 C-13.66 23 -14.32 23 -15 23 C-15 21.68 -15 20.36 -15 19 C-14.34 19 -13.68 19 -13 19 C-12.67 18.01 -12.34 17.02 -12 16 C-10.35 16.33 -8.7 16.66 -7 17 C-7 17.66 -7 18.32 -7 19 C-2.70048197 17.40758592 -0.60328053 14.64459275 2 11 C1.24849977 7.72226496 1.24849977 7.72226496 -2 6 C-1.34 4.02 -0.68 2.04 0 0 Z " fill="#2E2E2E" transform="translate(128,363)"/>
<path d="M0 0 C1.23682232 2.61508175 2.24924739 5.09066723 3.1875 7.8125 C3.45361084 8.57989502 3.71972168 9.34729004 3.99389648 10.13793945 C6.48885967 17.77592358 7.50437563 24.78774823 4.75 32.5 C1.90921778 36.55826031 -1.2210763 40.1826695 -6.125 41.625 C-13.79134584 42.62495815 -19.43568057 42.37621296 -26 38 C-26 37.34 -26 36.68 -26 36 C-26.66 36 -27.32 36 -28 36 C-31.13511549 31.7452004 -32.60900293 26.83782125 -34.25 21.875 C-34.53101563 21.06417969 -34.81203125 20.25335938 -35.1015625 19.41796875 C-35.36195313 18.63808594 -35.62234375 17.85820312 -35.890625 17.0546875 C-36.12813477 16.34812012 -36.36564453 15.64155273 -36.61035156 14.91357422 C-37 13 -37 13 -36 10 C-33.58758858 8.93517477 -31.28819661 8.07220595 -28.7890625 7.265625 C-28.06512299 7.02334167 -27.34118347 6.78105835 -26.5953064 6.53143311 C-25.06219881 6.02150474 -23.52710038 5.51752937 -21.99023438 5.01904297 C-19.63638971 4.2537033 -17.29080038 3.46631213 -14.9453125 2.67578125 C-13.45617024 2.18355942 -11.96659989 1.69263045 -10.4765625 1.203125 C-9.77334869 0.96676331 -9.07013489 0.73040161 -8.34561157 0.48687744 C-3.34599998 -1.11533333 -3.34599998 -1.11533333 0 0 Z M-9.609375 11.70703125 C-11.16398437 12.25423828 -11.16398437 12.25423828 -12.75 12.8125 C-14.28914063 13.34810547 -14.28914063 13.34810547 -15.859375 13.89453125 C-17.41398437 14.44173828 -17.41398437 14.44173828 -19 15 C-20.99884561 15.6701199 -22.99850693 16.33782939 -25 17 C-24.56509678 22.43629023 -23.3898616 25.7128221 -20 30 C-16.24543433 32.50304378 -14.45254066 32.45280074 -10 32 C-5.99520555 30.11094601 -4.39217052 28.80002787 -2.4375 24.8125 C-1.88584593 20.00522883 -2.81788142 16.30875957 -5 12 C-7.04330169 10.7010299 -7.04330169 10.7010299 -9.609375 11.70703125 Z " fill="#303030" transform="translate(384,200)"/>
<path d="M0 0 C0.99 0.33 1.98 0.66 3 1 C3 1.66 3 2.32 3 3 C3.99 3.33 4.98 3.66 6 4 C11 9.46511628 11 9.46511628 11 12 C11.99 12.33 12.98 12.66 14 13 C15.53515625 14.70703125 15.53515625 14.70703125 17.0625 16.8125 C17.56910156 17.49957031 18.07570312 18.18664062 18.59765625 18.89453125 C21.61378139 23.42291969 22.7275046 26.45277744 22 32 C18.83635021 38.26381498 14.83336359 43.08331821 8.5 46.25 C5.84638631 47.04608411 3.75464115 47.22955343 1 47 C0 46 0 46 -0.0625 42.4375 C-0.041875 41.303125 -0.02125 40.16875 0 39 C0.62648437 38.84144531 1.25296875 38.68289062 1.8984375 38.51953125 C7.15624686 37.2094023 7.15624686 37.2094023 10.5625 33.3125 C10.706875 32.549375 10.85125 31.78625 11 31 C11.66 31 12.32 31 13 31 C12.67 30.34 12.34 29.68 12 29 C11.34 29 10.68 29 10 29 C9.34 29.99 8.68 30.98 8 32 C7.34 32 6.68 32 6 32 C6 32.66 6 33.32 6 34 C0.44718974 36.95362248 -3.86555393 37.82918028 -10 36 C-13.27138929 34.19029529 -15.45194151 31.92173474 -17.375 28.6875 C-18.71566542 22.92263871 -18.81656579 18.83287554 -15.875 13.6875 C-13.41187045 10.10413357 -10.95682245 8.81354362 -7 7 C-5.1678232 5.10742177 -3.62729081 3.07931603 -2 1 C-1.34 0.67 -0.68 0.34 0 0 Z M-5.8125 15.625 C-8.52670389 18.40158601 -8.52670389 18.40158601 -9 22 C-7.48408701 24.85329312 -7.48408701 24.85329312 -5 27 C-2.5 27.75 -2.5 27.75 0 27 C2.79035429 24.7522146 3.85910005 23.42269984 5 20 C4.54400659 17.83572704 4.54400659 17.83572704 3 16 C-0.74031721 14.00516415 -2.06668799 13.46075306 -5.8125 15.625 Z " fill="#333333" transform="translate(131,140)"/>
<path d="M0 0 C1.92663757 2.37618634 3.03459537 3.89294828 2.9375 7 C1.67929338 9.68417412 -0.09665524 11.7397781 -2 14 C-2.33 14.66 -2.66 15.32 -3 16 C-3.66 16 -4.32 16 -5 16 C-5 16.66 -5 17.32 -5 18 C-3.2365625 17.7834375 -3.2365625 17.7834375 -1.4375 17.5625 C-0.34501953 17.43681641 -0.34501953 17.43681641 0.76953125 17.30859375 C3.2702639 16.99732004 3.2702639 16.99732004 6.75 16.125 C10 16 10 16 12.5 18.0625 C14.33418329 21.65444228 14.15987491 23.18898244 13 27 C12.34 27.99 11.68 28.98 11 30 C10.34 30 9.68 30 9 30 C9 30.99 9 31.98 9 33 C8.34 33 7.68 33 7 33 C6.67 34.32 6.34 35.64 6 37 C5.34 37 4.68 37 4 37 C3.67 38.32 3.34 39.64 3 41 C2.34 41 1.68 41 1 41 C0.690625 41.78375 0.38125 42.5675 0.0625 43.375 C-1 46 -1 46 -2 48 C-4.67611698 47.63088042 -5.8431469 47.15144437 -7.8125 45.25 C-9.37120617 42.296662 -8.94630077 41.16521291 -8 38 C-6.40625 35.61328125 -6.40625 35.61328125 -4.5 33.3125 C-1.99759535 30.31933753 -1.99759535 30.31933753 0 27 C-0.54527344 27.2165625 -1.09054688 27.433125 -1.65234375 27.65625 C-7.3594197 29.76347804 -11.9262767 30.28922492 -18 30 C-19.8125 27.5 -19.8125 27.5 -21 24 C-19.82517774 20.96504249 -18.1847065 18.41113267 -16 16 C-15.34 16 -14.68 16 -14 16 C-13.34 14.35 -12.68 12.7 -12 11 C-19.92 12.485 -19.92 12.485 -28 14 C-32 9 -32 9 -31.75 6.6875 C-31.5025 6.130625 -31.255 5.57375 -31 5 C-30.04480469 4.81824219 -29.08960937 4.63648438 -28.10546875 4.44921875 C-21.06977942 3.0813629 -14.20984346 1.6274269 -7.3671875 -0.546875 C-4.56864086 -1.0825704 -2.71157835 -0.84736823 0 0 Z " fill="#393939" transform="translate(112,334)"/>
<path d="M0 0 C3.03704161 1.73101007 4.58575911 3.55227258 6.1875 6.625 C7.66004133 9.75617669 7.66004133 9.75617669 9 11 C9.43688699 16.46108732 8.8041249 20.26803924 6 25 C1.96692547 28.92433968 -2.04189561 30.33430772 -7.625 30.5625 C-13.56834142 30.27438788 -16.7703327 28.2296673 -20.9375 24.0625 C-22 22 -22 22 -22.0390625 19.609375 C-20.69646126 16.23772977 -18.80745686 15.50837195 -15.58007812 14.07226562 C-14.51950195 13.63430664 -14.51950195 13.63430664 -13.4375 13.1875 C-12.72658203 12.87619141 -12.01566406 12.56488281 -11.28320312 12.24414062 C-9.52945799 11.47908402 -7.76560909 10.73726396 -6 10 C-9.05663912 9.06378718 -9.05663912 9.06378718 -12.125 9.75 C-14.29166667 11.02083333 -14.29166667 11.02083333 -16 14 C-18.875 13.6875 -18.875 13.6875 -22 13 C-22.66 12.01 -23.32 11.02 -24 10 C-18.96681336 -0.36244308 -10.6597321 -1.55806072 0 0 Z M-2 16 C-6.89562693 17.87702327 -6.89562693 17.87702327 -11 21 C-8.19235272 21.77426109 -8.19235272 21.77426109 -5 22 C-2.63709315 20.68864588 -2.63709315 20.68864588 -1 19 C-1.33 18.01 -1.66 17.02 -2 16 Z " fill="#373737" transform="translate(296,390)"/>
<path d="M0 0 C4.43676116 1.99817369 6.60301671 3.76924795 8.75 8.26953125 C9.5746573 13.78953463 9.49825056 18.71760415 7.0625 23.76953125 C6.299375 24.59453125 5.53625 25.41953125 4.75 26.26953125 C4.09 27.05328125 3.43 27.83703125 2.75 28.64453125 C-1.95995461 31.19575667 -6.99845504 30.93664036 -12.25 30.26953125 C-12.91 29.60953125 -13.57 28.94953125 -14.25 28.26953125 C-13.875 25.14453125 -13.875 25.14453125 -13.25 22.26953125 C-14.013125 22.59953125 -14.77625 22.92953125 -15.5625 23.26953125 C-18.25 24.26953125 -18.25 24.26953125 -21.25 24.26953125 C-23.2437211 20.28208905 -22.76476423 15.60408006 -22.25 11.26953125 C-18.47588519 1.42755081 -10.15554613 -3.29702626 0 0 Z M-12.4375 11.26953125 C-14.96273597 15.44923216 -14.20649226 17.56677763 -13.25 22.26953125 C-10.7000131 20.9945378 -10.59023585 20.08461773 -9.625 17.45703125 C-9.36460937 16.76996094 -9.10421875 16.08289063 -8.8359375 15.375 C-8.07126349 12.99151802 -8.07126349 12.99151802 -8.25 9.26953125 C-10.49798647 9.04460818 -10.49798647 9.04460818 -12.4375 11.26953125 Z M-2.25 11.26953125 C-3.24 14.56953125 -4.23 17.86953125 -5.25 21.26953125 C-1.2785831 20.64111152 -1.2785831 20.64111152 0.75 18.26953125 C0.91681109 15.18605299 0.91681109 15.18605299 0.75 12.26953125 C-0.24 11.93953125 -1.23 11.60953125 -2.25 11.26953125 Z " fill="#3A3A3A" transform="translate(372.25,306.73046875)"/>
<path d="M0 0 C0.14695312 0.8353125 0.14695312 0.8353125 0.296875 1.6875 C1.11321036 5.85362528 2.06301107 9.39587109 4.125 13.125 C6.11898791 16.90981478 6.73399009 19.67761391 6 24 C3.43573777 27.57442614 1.71228711 28.78376999 -2.5 30.0625 C-6 30 -6 30 -8.6875 28.6875 C-11.95035774 24.89553019 -13.39636431 20.69444192 -15 16 C-15.33 16 -15.66 16 -16 16 C-16.4916899 21.2856664 -15.26767248 22.99446599 -12 27 C-12.25 29.3125 -12.25 29.3125 -13 31 C-13.66 31 -14.32 31 -15 31 C-15.495 32.485 -15.495 32.485 -16 34 C-16.99 33.67 -17.98 33.34 -19 33 C-19 32.34 -19 31.68 -19 31 C-19.99 30.67 -20.98 30.34 -22 30 C-25.34104935 24.21741458 -26.46862818 19.67795156 -26 13 C-23.86863373 8.3109942 -21.07390931 5.89632444 -16.37890625 3.8671875 C-15.44949219 3.53976562 -14.52007812 3.21234375 -13.5625 2.875 C-12.17224609 2.37613281 -12.17224609 2.37613281 -10.75390625 1.8671875 C-7.09702227 0.71565808 -3.83849247 0 0 0 Z M-8 12 C-7.67 14.31 -7.34 16.62 -7 19 C-5.02 19.495 -5.02 19.495 -3 20 C-1.6215131 17.00923816 -1.6215131 17.00923816 -3.25 14.3125 C-3.8275 13.549375 -4.405 12.78625 -5 12 C-5.99 12 -6.98 12 -8 12 Z " fill="#3A3A3A" transform="translate(99,301)"/>
<path d="M0 0 C-0.66 6.93 -1.32 13.86 -2 21 C-0.68 20.01 0.64 19.02 2 18 C2.38697752 13.82064283 1.98622152 10.06816379 1 6 C1.99 5.67 2.98 5.34 4 5 C4 4.34 4 3.68 4 3 C4.99 2.67 5.98 2.34 7 2 C10.03034888 5.58132141 11.99430289 9.15144514 12.00390625 13.953125 C11.48132782 19.54151472 9.73931296 23.84085287 6.1875 28.25 C2.33840094 31.32927925 -1.21049502 32.25109932 -6.0625 31.8125 C-10.97563985 30.98896418 -13.83080549 29.20079436 -17.3125 25.625 C-19.86773219 20.13598269 -19.74215302 14.95237018 -19 9 C-17.23374266 5.05988748 -15.81143356 3.56611643 -12.3125 1.125 C-9 0 -9 0 0 0 Z M-10.5625 11.1875 C-12.21310688 12.94641784 -12.21310688 12.94641784 -12.3125 15.5 C-12.15838815 18.24689917 -12.15838815 18.24689917 -10 21 C-9.34 21 -8.68 21 -8 21 C-8 17.37 -8 13.74 -8 10 C-9.19439627 9.89915279 -9.19439627 9.89915279 -10.5625 11.1875 Z " fill="#3A3A3A" transform="translate(85,249)"/>
<path d="M0 0 C3.34516727 2.2880038 4.38432975 4.58099745 5.2265625 8.48046875 C6.08757409 14.3388981 5.78915265 18.08578725 2.73046875 23.18359375 C-2.49614108 28.02776872 -5.40372145 28.29433262 -12.26953125 28.18359375 C-12.33011719 27.1471875 -12.39070313 26.11078125 -12.453125 25.04296875 C-12.53756496 23.67316502 -12.62221122 22.303374 -12.70703125 20.93359375 C-12.74634766 20.25167969 -12.78566406 19.56976563 -12.82617188 18.8671875 C-13.03619597 15.53911334 -13.28887127 12.38103973 -14.26953125 9.18359375 C-16.57699539 11.06132639 -16.57699539 11.06132639 -16.51953125 14.12109375 C-16.50470879 17.35642162 -16.50470879 17.35642162 -14.26953125 20.18359375 C-14.64453125 22.87109375 -14.64453125 22.87109375 -15.26953125 25.18359375 C-15.92953125 25.18359375 -16.58953125 25.18359375 -17.26953125 25.18359375 C-17.26953125 25.84359375 -17.26953125 26.50359375 -17.26953125 27.18359375 C-19.08203125 26.99609375 -19.08203125 26.99609375 -21.26953125 26.18359375 C-25.31753547 20.48640263 -26.1490063 15.017216 -25.26953125 8.18359375 C-23.48589133 3.41655612 -21.27152655 0.77736874 -16.89453125 -1.81640625 C-10.38570912 -3.61194339 -5.8458439 -3.26779282 0 0 Z M-6.26953125 7.18359375 C-6.26953125 10.81359375 -6.26953125 14.44359375 -6.26953125 18.18359375 C-2.09302673 15.74579334 -2.09302673 15.74579334 -1.76953125 12.68359375 C-2.09302673 9.62139416 -2.09302673 9.62139416 -6.26953125 7.18359375 Z " fill="#373737" transform="translate(384.26953125,246.81640625)"/>
<path d="M0 0 C4.91112059 3.84348568 6.53260442 8.6526024 8.5625 14.4375 C8.99949219 15.66855469 9.43648437 16.89960938 9.88671875 18.16796875 C10.875 21.25 10.875 21.25 10.875 23.25 C7.905 24.24 4.935 25.23 1.875 26.25 C-3.01005886 16.65365908 -3.01005886 16.65365908 -4.75 12.1875 C-5.20375 11.218125 -5.6575 10.24875 -6.125 9.25 C-9.25849732 8.20550089 -10.11468256 8.31576355 -13.125 9.25 C-13.40408468 14.67121998 -12.55221053 18.62857235 -10.625 23.6875 C-10.38652344 24.32365234 -10.14804688 24.95980469 -9.90234375 25.61523438 C-9.32009076 27.16402732 -8.72398931 28.70760253 -8.125 30.25 C-11.12186502 31.99236338 -13.34093537 33.22405254 -16.83984375 33.33984375 C-19.125 32.25 -19.125 32.25 -20.56640625 29.44140625 C-20.93636719 28.24386719 -21.30632812 27.04632813 -21.6875 25.8125 C-22.09713831 24.5358729 -22.50861162 23.25983322 -22.921875 21.984375 C-23.31890625 20.75203125 -23.7159375 19.5196875 -24.125 18.25 C-25.18682174 15.56097092 -26.29458272 12.8986098 -27.42578125 10.23828125 C-28.125 8.25 -28.125 8.25 -28.125 5.25 C-25.320261 4.01261515 -22.92129321 3.21866049 -19.875 2.75 C-18.51375 2.5025 -18.51375 2.5025 -17.125 2.25 C-16.795 1.59 -16.465 0.93 -16.125 0.25 C-10.0523262 -2.97078727 -6.06618648 -3.39706443 0 0 Z " fill="#353535" transform="translate(182.125,119.75)"/>
<path d="M0 0 C3.9549977 1.93955111 6.47888139 4.39215024 8.4140625 8.35546875 C10.03012772 13.14696036 10.12076999 17.21825078 7.87109375 21.8046875 C4.9588328 26.35786705 2.17237399 30.47146976 -3.25 31.98828125 C-8.35436408 32.57508216 -12.0610857 32.68932431 -16.37890625 29.69140625 C-20.54948734 26.01833102 -23.18018761 22.58527704 -23.54296875 16.8984375 C-23.15630161 10.92544777 -20.53515025 6.63503937 -16.0859375 2.7265625 C-10.8624364 -0.94122131 -6.23999433 -2.16048684 0 0 Z M-11.66796875 10.5234375 C-14.20563893 13.07754161 -14.20563893 13.07754161 -13.85546875 15.9609375 C-12.93338524 18.54080705 -12.93338524 18.54080705 -10.91796875 21.3359375 C-7.54446826 22.42509904 -7.54446826 22.42509904 -3.91796875 22.3359375 C-1.066809 20.43516433 -0.14160609 19.20812312 0.70703125 15.8984375 C-0.254998 11.95411757 -2.66107187 10.57106281 -5.91796875 8.3359375 C-9.11232209 8.02467572 -9.11232209 8.02467572 -11.66796875 10.5234375 Z " fill="#353535" transform="translate(348.91796875,347.6640625)"/>
<path d="M0 0 C4.77226665 1.74386253 7.37850207 3.97064406 10 8.3125 C11.74648544 14.75266505 11.63888717 20.17508723 9.02734375 26.30078125 C7.19449344 29.33230172 5.35231545 30.02478096 2 31 C-4.82259232 31.9028221 -10.35080408 31.04445898 -16 27 C-19.46350444 23.35887995 -20.8688304 20.73799722 -21.25 15.6875 C-20.84387439 9.69714722 -18.46425503 5.90622315 -14 2 C-9.5004254 -0.9997164 -5.2712324 -0.69036604 0 0 Z M-9.375 11.6875 C-11.1972737 14.7871985 -11.1972737 14.7871985 -11 17.6875 C-9.77413236 20.52231891 -8.74276752 21.58943385 -6 23 C-2.93288436 22.72117131 -1.63629294 21.75752863 1 20 C2.08916154 16.62649951 2.08916154 16.62649951 2 13 C0.07809455 10.11714182 -1.14822979 9.21294255 -4.5 8.375 C-7.29550198 8.82314788 -7.29550198 8.82314788 -9.375 11.6875 Z " fill="#323232" transform="translate(173,390)"/>
<path d="M0 0 C3.61285419 2.75265081 4.63349691 5.64416592 5.625 10 C5.8125 13 5.8125 13 5.625 15 C-0.29795536 16.84269722 -6.2637076 17.9611908 -12.375 19 C-9.31070224 20.53214888 -6.7584358 20.22938548 -3.375 20 C-0.50353006 18.63002843 -0.50353006 18.63002843 1.625 17 C1.955 17.99 2.285 18.98 2.625 20 C4.64008358 20.73323796 4.64008358 20.73323796 6.625 21 C5.72332168 24.03291798 5.03838072 25.67695063 2.515625 27.6484375 C-1.14470872 29.35989083 -3.9095419 29.36449946 -7.9375 29.3125 C-9.23816406 29.30863281 -10.53882813 29.30476563 -11.87890625 29.30078125 C-15.02435081 29.03016758 -16.75804656 28.67138757 -19.375 27 C-19.375 26.34 -19.375 25.68 -19.375 25 C-20.035 25 -20.695 25 -21.375 25 C-24.49215741 19.9346192 -25.12387234 15.79335964 -24.375 10 C-22.60407026 4.78559576 -20.12841032 2.67379331 -15.375 0 C-10.16960044 -1.73513319 -5.24100477 -1.5528903 0 0 Z M-13.25 8.375 C-14.56473666 9.94466014 -14.56473666 9.94466014 -14.375 12 C-8.93 11.505 -8.93 11.505 -3.375 11 C-4.035 9.68 -4.695 8.36 -5.375 7 C-9.5859755 6.61571652 -9.5859755 6.61571652 -13.25 8.375 Z " fill="#333333" transform="translate(214.375,111)"/>
<path d="M0 0 C0.25 7.625 0.25 7.625 -2 11 C-4.93359375 11.94921875 -4.93359375 11.94921875 -8.4375 12.6875 C-9.59121094 12.93886719 -10.74492187 13.19023437 -11.93359375 13.44921875 C-15 14 -15 14 -18 14 C-15.94766315 16.2477975 -14.99332739 17.0022242 -12 18 C-12 18.66 -12 19.32 -12 20 C-10.88625 20.433125 -10.88625 20.433125 -9.75 20.875 C-7.4551718 21.81379336 -5.21766895 22.89116553 -3 24 C-3.33 27.3 -3.66 30.6 -4 34 C-8.83002765 32.76153137 -12.32744185 30.59607688 -16.34375 27.76953125 C-19.08523325 25.89159734 -19.08523325 25.89159734 -22.46875 24.07421875 C-23.06292725 23.7405127 -23.65710449 23.40680664 -24.26928711 23.06298828 C-25.99491241 22.10020918 -27.73358005 21.16092073 -29.47265625 20.22265625 C-32 18 -32 18 -32.43359375 14.43359375 C-32 11 -32 11 -31 8 C-29.08569336 7.14038086 -29.08569336 7.14038086 -26.58984375 6.46484375 C-25.68169922 6.21283203 -24.77355469 5.96082031 -23.83789062 5.70117188 C-22.88076172 5.44916016 -21.92363281 5.19714844 -20.9375 4.9375 C-20.00744141 4.68162109 -19.07738281 4.42574219 -18.11914062 4.16210938 C-15.41715015 3.4234767 -12.71049854 2.70671105 -10 2 C-9.20867676 1.79262207 -8.41735352 1.58524414 -7.60205078 1.37158203 C-2.2640996 0 -2.2640996 0 0 0 Z " fill="#3B3B3B" transform="translate(390,276)"/>
<path d="M0 0 C1.98 0 3.96 0 6 0 C6 0.66 6 1.32 6 2 C6.61875 2.28875 7.2375 2.5775 7.875 2.875 C10 4 10 4 12 6 C12.9724003 10.55221027 12.85301001 14.52337954 10.50390625 18.58984375 C8.16762661 21.58669309 5.68492206 24.31507794 3 27 C5.31 28.65 7.62 30.3 10 32 C7 32 7 32 4 31 C3.67 32.98 3.34 34.96 3 37 C2.34 37 1.68 37 1 37 C1 36.34 1 35.68 1 35 C-1.34533951 34.23043864 -1.34533951 34.23043864 -4 34 C-5.8354799 35.33378575 -5.8354799 35.33378575 -7 37 C-9.95409701 35.62845496 -12.44008376 34.01136276 -15 32 C-14.34 30.35 -13.68 28.7 -13 27 C-12.34 27 -11.68 27 -11 27 C-11 26.34 -11 25.68 -11 25 C-11.66 25 -12.32 25 -13 25 C-13 24.34 -13 23.68 -13 23 C-13.66 23 -14.32 23 -15 23 C-15 21.68 -15 20.36 -15 19 C-14.34 19 -13.68 19 -13 19 C-12.67 18.01 -12.34 17.02 -12 16 C-10.35 16.33 -8.7 16.66 -7 17 C-7 17.66 -7 18.32 -7 19 C-2.70048197 17.40758592 -0.60328053 14.64459275 2 11 C1.24849977 7.72226496 1.24849977 7.72226496 -2 6 C-1.34 4.02 -0.68 2.04 0 0 Z " fill="#373737" transform="translate(128,363)"/>
<path d="M0 0 C3.33717549 1.3809002 5.22301036 2.8201238 7 6 C6.72854508 8.51377263 6.34168161 9.6744145 4.49707031 11.43212891 C3.86381836 11.85929199 3.23056641 12.28645508 2.578125 12.7265625 C1.88203125 13.2009375 1.1859375 13.6753125 0.46875 14.1640625 C-0.2634375 14.64617187 -0.995625 15.12828125 -1.75 15.625 C-2.46671875 16.11484375 -3.1834375 16.6046875 -3.921875 17.109375 C-6.89712949 19.11110872 -9.60021742 20.84452899 -12.953125 22.1484375 C-13.62859375 22.42945313 -14.3040625 22.71046875 -15 23 C-15.33 23.99 -15.66 24.98 -16 26 C-17.95597184 27.39712274 -19.95436401 28.73779907 -22 30 C-23.9375 29.25 -23.9375 29.25 -26 28 C-26.75 25.875 -26.75 25.875 -27 24 C-27.66 24 -28.32 24 -29 24 C-29.33 22.35 -29.66 20.7 -30 19 C-29.18402344 18.78988281 -28.36804688 18.57976562 -27.52734375 18.36328125 C-22.99440006 16.6113462 -19.46672758 14.04231539 -15.5625 11.1875 C-14.83740234 10.66607422 -14.11230469 10.14464844 -13.36523438 9.60742188 C-11.93280172 8.57653368 -10.50256535 7.54258582 -9.07470703 6.50537109 C-6.06214976 4.31951228 -3.03088377 2.16035326 0 0 Z " fill="#3E3E3E" transform="translate(361,167)"/>
<path d="M0 0 C0.99 0 1.98 0 3 0 C3 0.66 3 1.32 3 2 C3.51691406 2.09023438 4.03382813 2.18046875 4.56640625 2.2734375 C7.92822826 3.27712754 10.87570791 4.94717707 13.9375 6.625 C14.59049072 6.97820312 15.24348145 7.33140625 15.91625977 7.6953125 C17.27066591 8.4282198 18.62409262 9.1629398 19.9765625 9.89941406 C22.54487265 11.29636654 25.12003801 12.68036183 27.69555664 14.06396484 C30.13190262 15.373138 32.5659702 16.68652692 35 18 C34.38550003 21.33822957 33.65439171 24.02209492 32 27 C27.61250137 27.68554666 25.21171987 26.08058579 21.640625 23.6953125 C18.15497021 21.45748088 14.55470875 19.45360157 10.9375 17.4375 C9.59241512 16.68625664 8.24736235 15.93495577 6.90234375 15.18359375 C6.25765137 14.82378418 5.61295898 14.46397461 4.94873047 14.09326172 C1.95523165 12.41387213 -1.02247471 10.70752751 -4 9 C-3.47557578 5.2241456 -2.67345333 2.77627845 0 0 Z " fill="#3A3A3A" transform="translate(345,332)"/>
<path d="M0 0 C5.37129841 18.82004556 5.37129841 18.82004556 7 28 C4.10075278 29.63400556 2.97224501 29.99950438 -0.5 29.9375 C-4.3821338 30.00682382 -5.13389198 30.62804854 -8 33 C-9.32 33 -10.64 33 -12 33 C-12.66 30.36 -13.32 27.72 -14 25 C-9.25 22 -9.25 22 -7 22 C-6.71778368 16.61964747 -6.71778368 16.61964747 -8 11.5 C-9.4340643 7.91483924 -9.13036833 4.84586583 -9 1 C-5.8035914 -0.06546953 -3.34252724 -0.07427838 0 0 Z " fill="#383838" transform="translate(268,398)"/>
<path d="M0 0 C0.54527344 0.20496094 1.09054687 0.40992187 1.65234375 0.62109375 C7.15432765 2.58675979 12.1764819 3.53781602 18 4 C17.67 6.64 17.34 9.28 17 12 C14.76590159 12.5792107 12.74985101 13.01830358 10.4375 13.1875 C7.78680496 13.79825167 7.78680496 13.79825167 6.375 16.375 C4.55833049 21.16440143 3.24562567 26.03516576 2 31 C-0.97 30.67 -3.94 30.34 -7 30 C-8.17538838 26.47383486 -7.74950208 25.12091213 -6.85546875 21.5625 C-6.59056641 20.50289062 -6.32566406 19.44328125 -6.05273438 18.3515625 C-5.76720703 17.24554688 -5.48167969 16.13953125 -5.1875 15 C-4.91357422 13.89398438 -4.63964844 12.78796875 -4.35742188 11.6484375 C-2.26431333 3.39646999 -2.26431333 3.39646999 0 0 Z " fill="#313131" transform="translate(261,112)"/>
<path d="M0 0 C0.268125 0.94875 0.53625 1.8975 0.8125 2.875 C1.74986588 6.25267273 1.74986588 6.25267273 5 8 C7.7945109 7.82156573 10.43035488 7.54398974 13.1875 7.125 C14.31188477 6.96837891 14.31188477 6.96837891 15.45898438 6.80859375 C17.30749204 6.5495672 19.15397432 6.27616034 21 6 C23 12.625 23 12.625 23 16 C13.63578226 18.29998331 3.67585604 20.25851524 -6 20 C-8.125 13.375 -8.125 13.375 -7 10 C-7.66 9.01 -8.32 8.02 -9 7 C-9.125 3.8125 -9.125 3.8125 -9 1 C-5.94152152 0.45627049 -3.11227195 0 0 0 Z " fill="#383838" transform="translate(75,282)"/>
<path d="M0 0 C3.41272824 1.16753791 4.11169213 2.58840989 5.8996582 5.68310547 C6.47006836 6.65892578 7.04047852 7.63474609 7.62817383 8.64013672 C8.49539062 10.18121094 8.49539062 10.18121094 9.38012695 11.75341797 C10.27634766 13.28289062 10.27634766 13.28289062 11.19067383 14.84326172 C15.56762695 22.43665011 15.56762695 22.43665011 15.56762695 25.87841797 C11.60762695 27.85841797 11.60762695 27.85841797 7.56762695 29.87841797 C0.2434082 18.15966797 0.2434082 18.15966797 -1.07836914 16.02685547 C-2.00274865 14.56011553 -2.94955318 13.10733083 -3.9152832 11.66748047 C-4.38111816 10.96365234 -4.84695312 10.25982422 -5.3269043 9.53466797 C-5.75463135 8.90367187 -6.1823584 8.27267578 -6.62304688 7.62255859 C-7.43237305 5.87841797 -7.43237305 5.87841797 -6.43237305 2.87841797 C-4.21214069 0.65818561 -3.18067927 -0.15898608 0 0 Z " fill="#3E3E3E" transform="translate(146.432373046875,131.12158203125)"/>
<path d="M0 0 C1.9375 1.0625 1.9375 1.0625 3 3 C2.66666667 9.33333333 2.66666667 9.33333333 0 12 C-2.9375 12.375 -2.9375 12.375 -6 12 C-8.35210784 9.88310295 -8.91810953 8.55958485 -9.375 5.4375 C-9 3 -9 3 -7.875 1.1875 C-5.12844028 -0.55198782 -3.18153026 -0.39769128 0 0 Z " fill="#4E4E4E" transform="translate(234,403)"/>
<path d="M0 0 C6.125 -0.4375 6.125 -0.4375 9 1 C9.94497175 4.27105605 10.33753855 6.19834595 9 9.375 C7 11 7 11 3.5 11.5 C0 11 0 11 -2 9.25 C-3 7 -3 7 -2.8125 4.9375 C-2 3 -2 3 0 0 Z " fill="#474747" transform="translate(287,143)"/>
<path d="M0 0 C2.21075403 1.10537701 3.47695472 1.87722274 4.875 3.9375 C4.73636996 6.71010089 4.17425448 8.43874254 2.75 10.8125 C-0.25210787 12.61376472 -2.82679208 11.62203372 -6.125 10.9375 C-6.9375 7.6875 -6.9375 7.6875 -7.125 3.9375 C-4.86778117 1.35782134 -3.53000847 -0.10382378 0 0 Z " fill="#525252" transform="translate(140.125,120.0625)"/>
<path d="M0 0 C2.66666667 1.33333333 5.33333333 2.66666667 8 4 C6.25 4.6875 6.25 4.6875 4 5 C1.75 3.5625 1.75 3.5625 0 2 C-0.33 4.31 -0.66 6.62 -1 9 C-1.66 9 -2.32 9 -3 9 C-3.66 7.35 -4.32 5.7 -5 4 C-3.35 2.68 -1.7 1.36 0 0 Z " fill="#AEAEAE" transform="translate(126,401)"/>
<path d="M0 0 C2.27177532 1.77791112 2.96272851 2.85430236 3.6875 5.6875 C4.04657156 9.49365855 4.06589696 13.17797661 4 17 C2.68 16.67 1.36 16.34 0 16 C0.2475 15.2575 0.2475 15.2575 0.5 14.5 C1.45131847 9.74340765 1.54677229 4.64031687 0 0 Z " fill="#E8E8E8" transform="translate(182,398)"/>
<path d="M0 0 C3.0109362 2.0072908 3.63016497 2.83884224 5 6 C5.66 5.01 6.32 4.02 7 3 C6.67 5.97 6.34 8.94 6 12 C5.01 11.67 4.02 11.34 3 11 C2.05078125 8.49609375 2.05078125 8.49609375 1.3125 5.4375 C1.06113281 4.42558594 0.80976563 3.41367188 0.55078125 2.37109375 C0.36902344 1.58863281 0.18726563 0.80617188 0 0 Z " fill="#C8C8C8" transform="translate(217,115)"/>
<path d="M0 0 C0.66 0.33 1.32 0.66 2 1 C2 1.99 2 2.98 2 4 C-2.62 4 -7.24 4 -12 4 C-11.67 3.01 -11.34 2.02 -11 1 C-7.37 1.33 -3.74 1.66 0 2 C0 1.34 0 0.68 0 0 Z " fill="#BDBDBD" transform="translate(243,118)"/>
<path d="M0 0 C5.875 2.75 5.875 2.75 7 5 C5.02 4.34 3.04 3.68 1 3 C0.67 4.98 0.34 6.96 0 9 C-0.66 9 -1.32 9 -2 9 C-2 8.34 -2 7.68 -2 7 C-2.66 6.67 -3.32 6.34 -4 6 C-3.34 6 -2.68 6 -2 6 C-1.34 4.02 -0.68 2.04 0 0 Z " fill="#D7D7D7" transform="translate(131,391)"/>
<path d="M0 0 C-1.44077046 3.36179774 -3.24750021 5.59156268 -6 8 C-6.66 8 -7.32 8 -8 8 C-6.65580512 3.85539913 -4.87800266 0 0 0 Z " fill="#767676" transform="translate(310,375)"/>
<path d="M0 0 C2.89696854 0.36982577 5.37621929 0.68810965 8 2 C7.67 3.65 7.34 5.3 7 7 C6.34 5.68 5.68 4.36 5 3 C3.02 3 1.04 3 -1 3 C-1.33 3.99 -1.66 4.98 -2 6 C-1.125 1.125 -1.125 1.125 0 0 Z " fill="#B8B8B8" transform="translate(74,196)"/>
<path d="M0 0 C0.99 0 1.98 0 3 0 C1.95125002 2.62187494 1.35068687 3.79371361 -1.125 5.25 C-1.74375 5.4975 -2.3625 5.745 -3 6 C-3 5.34 -3 4.68 -3 4 C-4.65 4.33 -6.3 4.66 -8 5 C-7.67 4.34 -7.34 3.68 -7 3 C-5 2.66666667 -3 2.33333333 -1 2 C-0.67 1.34 -0.34 0.68 0 0 Z " fill="#AAAAAA" transform="translate(166,120)"/>
<path d="M0 0 C0.66 0.33 1.32 0.66 2 1 C1.04882866 2.1725131 0.08882991 3.33787015 -0.875 4.5 C-1.40867188 5.1496875 -1.94234375 5.799375 -2.4921875 6.46875 C-2.98976562 6.9740625 -3.48734375 7.479375 -4 8 C-4.66 8 -5.32 8 -6 8 C-4.73058503 4.08597051 -3.48832306 2.20927127 0 0 Z " fill="#7F7F7F" transform="translate(230,110)"/>
<path d="M0 0 C0.66 0.33 1.32 0.66 2 1 C1.505 1.4125 1.01 1.825 0.5 2.25 C-1.43386092 4.12202338 -1.43386092 4.12202338 -1 8 C-2.65 8 -4.3 8 -6 8 C-2.25 2.25 -2.25 2.25 0 0 Z " fill="#B8B8B8" transform="translate(129,141)"/>
<path d="M0 0 C0.66 0.33 1.32 0.66 2 1 C0.38405168 3.04119788 -1.2856382 5.04072937 -3 7 C-3.66 7 -4.32 7 -5 7 C-4.60196439 4.11424181 -4.20990931 3.17810487 -1.9375 1.25 C-1.298125 0.8375 -0.65875 0.425 0 0 Z " fill="#808080" transform="translate(197,112)"/>
<path d="M0 0 C-1.20381448 2.49361571 -2.45428722 4.68143083 -4 7 C-4.33 5.35 -4.66 3.7 -5 2 C-2 0 -2 0 0 0 Z " fill="#939393" transform="translate(279,406)"/>
<path d="M0 0 C1 4 1 4 1 8 C1.66 8.66 2.32 9.32 3 10 C1.35 9.67 -0.3 9.34 -2 9 C-1.34 6.03 -0.68 3.06 0 0 Z " fill="#BEBEBE" transform="translate(255,132)"/>
</svg>
